<?xml version="1.0" encoding="utf-8"?>
<!-- Generator: Adobe Illustrator 19.0.0, SVG Export Plug-In . SVG Version: 6.00 Build 0)  -->
<svg version="1.1" id="Layer_1" xmlns="http://www.w3.org/2000/svg" xmlns:xlink="http://www.w3.org/1999/xlink" x="0px" y="0px"
	 viewBox="0 0 759 367" style="enable-background:new 0 0 759 367;" xml:space="preserve">
<style type="text/css">
	.st0{fill:#9FA7BE;}
</style>
<g id="XMLID_526_">
	<path id="XMLID_1967_" class="st0" d="M209.2,32c0,0,1.3,0.9,3.6,2.3c0.6,0.4,1.2,0.8,1.9,1.2c0.7,0.5,1.4,1,2.1,1.5
		c1.5,1.1,3.3,2.2,5.1,3.7c1.8,1.4,3.8,2.9,5.9,4.5c1,0.8,2.1,1.6,3.2,2.6c1.1,0.9,2.1,1.8,3.2,2.8c1.1,0.9,2.2,1.9,3.3,2.9
		c1.1,1,2.2,2,3.3,3.1c2.2,2.1,4.4,4.2,6.5,6.5c2.2,2.2,4.2,4.5,6.2,6.7c1.9,2.3,3.9,4.6,5.6,6.9c1.8,2.2,3.4,4.5,5,6.6
		c0.8,1,1.5,2.2,2.2,3.2c0.7,1,1.4,2,2,3c1.2,2,2.4,3.7,3.3,5.3c0.5,0.8,0.9,1.6,1.3,2.3c0.4,0.7,0.8,1.3,1.1,1.9
		c1.3,2.4,2.1,3.7,2.1,3.7l0,0c0.1,0.1,0.2,0.2,0.3,0.1c0.1,0,0.2-0.2,0.2-0.3c0,0-0.5-1.5-1.4-4.1c-0.4-1.3-1.1-2.8-1.9-4.6
		c-0.2-0.4-0.4-0.9-0.6-1.4c-0.2-0.5-0.5-0.9-0.7-1.4c-0.5-1-1-2-1.5-3c-0.5-1.1-1.2-2.1-1.8-3.2c-0.7-1.1-1.3-2.2-2.1-3.3
		c-0.7-1.1-1.5-2.3-2.3-3.5c-0.8-1.2-1.7-2.3-2.5-3.5c-1.7-2.4-3.7-4.7-5.6-7.2c-2-2.3-4-4.7-6.2-7c-2.1-2.3-4.3-4.5-6.5-6.7
		c-1.1-1.1-2.2-2.1-3.4-3.1c-1.1-1-2.2-2.1-3.3-3c-1.1-1-2.2-1.9-3.3-2.8c-1.1-0.9-2.2-1.8-3.2-2.6c-1.1-0.8-2.1-1.7-3.1-2.4
		c-1-0.7-2-1.5-3-2.2c-1.9-1.4-3.7-2.6-5.3-3.7c-0.8-0.5-1.5-1-2.2-1.5c-0.7-0.4-1.3-0.8-1.9-1.2c-2.3-1.4-3.6-2.2-3.6-2.2
		c-0.8-0.5-1.9-0.3-2.4,0.6C208.1,30.4,208.3,31.5,209.2,32z"/>
	<path id="XMLID_1966_" class="st0" d="M255.9,130.1c-0.1-1-0.2-2-0.3-3.1c-0.3-2.1-0.6-4.2-1-6.4c-0.2-1.1-0.4-2.2-0.6-3.3
		c-0.3-1.1-0.5-2.2-0.8-3.3c-0.2-1.1-0.5-2.2-0.8-3.2c-0.3-1.1-0.6-2.1-0.9-3.2c-0.7-2.1-1.3-4.2-2.1-6.1c-0.7-2-1.5-3.9-2.3-5.6
		c-0.8-1.8-1.6-3.4-2.4-4.9c-0.8-1.5-1.6-2.8-2.3-4c-0.8-1.2-1.4-2.2-2-2.9c-1.2-1.5-1.9-2.4-1.9-2.4c-0.2-0.2-0.5-0.3-0.8-0.2
		c-0.4,0.2-0.6,0.6-0.4,1c0,0,0.4,1,1.2,2.8c0.4,0.9,0.8,1.9,1.3,3.1c0.5,1.2,1,2.6,1.7,4.1c0.3,0.8,0.6,1.6,0.9,2.4
		c0.3,0.8,0.7,1.6,1,2.5c0.3,0.9,0.6,1.8,1,2.7c0.3,0.9,0.6,1.9,1,2.8c0.6,1.7,1.1,3.4,1.7,5.2c0,0.1,0,0.1,0,0.2l0,0
		c0,0-0.1,0.9-0.4,2.5c-0.2,1.6-0.6,3.9-1,6.6c-0.2,1.4-0.5,2.8-0.8,4.4c-0.3,1.6-0.6,3.2-0.9,4.9c-0.3,1.7-0.7,3.4-1.1,5.2
		c-0.4,1.8-0.8,3.6-1.2,5.4c-0.4,1.8-0.9,3.6-1.3,5.3c-0.5,1.7-0.9,3.5-1.4,5.1c-0.5,1.6-1,3.2-1.5,4.7c-0.5,1.5-1,2.9-1.4,4.2
		c-0.5,1.3-0.9,2.5-1.3,3.6c-0.2,0.5-0.3,1-0.5,1.5c-0.2,0.5-0.3,0.9-0.5,1.3c-0.6,1.5-0.8,2.4-0.8,2.4l0,0c0,0.1,0,0.3,0.1,0.4
		c0.2,0.1,0.4,0.1,0.5-0.1c0,0,0.6-0.7,1.5-2.1c0.5-0.7,1.1-1.5,1.6-2.5c0.6-1,1.2-2.1,1.9-3.4c0.6-1.3,1.2-2.7,1.9-4.2
		c0.6-1.5,1.2-3.1,1.8-4.8c0.6-1.7,1.1-3.4,1.7-5.2c0.5-1.8,1-3.6,1.5-5.4c0.4-1.8,1-3.6,1.3-5.4c0.4-1.8,0.8-3.6,1.1-5.3
		c0.7-3.5,1.2-6.7,1.6-9.5c0-0.3,0.1-0.6,0.1-0.9c0.1,0.3,0.2,0.7,0.3,1c0.2,1.1,0.5,2.1,0.7,3.1c0.5,2.1,0.9,4.1,1.3,6.1
		c0.3,2,0.7,3.9,1,5.8c0.3,1.8,0.5,3.6,0.7,5.2c0.2,1.6,0.3,3.1,0.4,4.4c0.1,1.3,0.2,2.5,0.2,3.4c0,1.9,0.1,3,0.1,3l0,0
		c0,0.3,0.2,0.5,0.5,0.6c0.3,0.1,0.6-0.1,0.7-0.5c0,0,0.2-1.1,0.5-3c0.2-1,0.3-2.2,0.4-3.5c0-0.7,0.1-1.4,0.2-2.2c0-0.8,0-1.6,0-2.4
		c0.1-1.7-0.1-3.5-0.1-5.4C256.1,132.1,256,131.1,255.9,130.1z"/>
	<path id="XMLID_1965_" class="st0" d="M165.3,168.9c0.2,0,0.5-0.1,0.7-0.2c1.1-0.6,4.4-2.1,6.7-1.9c0.7,0.1,1.4-0.5,1.5-1.2
		c0.1-0.7-0.5-1.4-1.2-1.5c-3.7-0.3-8.1,2.2-8.3,2.3c-0.6,0.4-0.9,1.2-0.5,1.8C164.4,168.7,164.9,168.9,165.3,168.9z"/>
	<path id="XMLID_1964_" class="st0" d="M70.2,215.1c1,0,1.9-0.1,2.7-0.4c3.3-0.9,5.2-3.6,5.2-7c0-5-3.5-10.4-7.3-16.1
		c-5.4-8.2-11.5-17.5-8.8-27.9c2.7-10.3,13.4-20.3,32.7-30.5c0.4-0.2,0.6-0.8,0.4-1.2c-0.2-0.4-0.8-0.6-1.2-0.4
		C74,142.1,63,152.4,60.2,163.3c-2.9,11.2,3.5,20.9,9,29.4c3.6,5.5,7,10.6,7,15.1c0,2.7-1.4,4.6-3.9,5.3c-4.1,1.2-10.9-1.2-16.1-9.4
		c-0.3-0.4-0.8-0.5-1.2-0.3c-0.4,0.3-0.5,0.8-0.3,1.2C59.5,212.1,65.5,215.1,70.2,215.1z"/>
	<path id="XMLID_1963_" class="st0" d="M43.2,131.8c0.2,0.1,0.5,0.2,0.7,0.2c0.5,0,0.9-0.2,1.2-0.6c3.6-5.9,14-10.5,14.1-10.6
		c0.4-0.2,0.7-0.6,0.8-1c0.1-0.5-0.1-0.9-0.4-1.2c-0.2-0.2-2.2-1.8-7.2-1.8c-2.2,0-4.1,0.4-5.6,0.9l0.6-1.8c0.2-0.7-0.1-1.5-0.9-1.7
		c-0.7-0.2-1.5,0.1-1.7,0.9l-1.5,4.5c-0.2,0.5,0,1.1,0.4,1.5c0.4,0.4,1,0.4,1.5,0.2c0,0,0.3-0.2,0.8-0.4c0.3,1.1,0.6,2.1,1.3,3
		c-0.2-0.7-0.6-2,0.1-3.5c0.5-0.2,1.1-0.3,1.8-0.5c-0.1,0.9,0,1.8,0.4,2.7c0.6-1.2,1.4-2,1.8-1.6c0.5,0.1,0.8,0.4,1,0.6
		c-3.4,2.1-7.5,5.1-9.6,8.6C42.4,130.5,42.6,131.4,43.2,131.8z"/>
	<path id="XMLID_1962_" class="st0" d="M62.7,288.8c-11.9-5.5-11.2-20-6-30.2c1.1-2.1-2.1-3.9-3.1-1.8c-6,11.8-6.4,28.8,7.3,35.1
		C62.9,292.9,64.8,289.8,62.7,288.8z"/>
	<path id="XMLID_1961_" class="st0" d="M45.6,290.7c-5.4-3.3-8-9.3-7.2-15.5c0.3-2.3-3.3-2.3-3.6,0c-1,7.5,2.6,14.7,9,18.7
		C45.7,295.1,47.5,292,45.6,290.7z"/>
	<path id="XMLID_1960_" class="st0" d="M25.6,282.3c0.3-2.3-3.2-3.3-3.5-1c-0.6,4,0.6,7.8,3.4,10.8c1.6,1.7,4.2-0.9,2.6-2.6
		C26.2,287.6,25.2,285,25.6,282.3z"/>
	<path id="XMLID_1959_" class="st0" d="M28.3,143.5c0.2,0.1,0.3,0.1,0.5,0.1c0.1,0,0.2,0,0.2,0c0.2-0.1,0.4-0.3,0.3-0.6
		c-0.1-0.2-0.3-0.4-0.5-0.3c-0.7-0.3-2.7-5.8-4.3-20.7c0-0.2-0.2-0.4-0.5-0.4c-0.2,0-0.4,0.2-0.4,0.5
		C24.9,134.1,26.7,142.5,28.3,143.5z"/>
	<path id="XMLID_1958_" class="st0" d="M92.2,59.4c-9,12-12,19.2-9.5,22.6c0.2,0.2,0.4,0.4,0.7,0.4c0.2,0,0.4-0.1,0.5-0.2
		c0.4-0.3,0.5-0.9,0.2-1.3c-1.3-1.8-0.8-6.8,9.5-20.4c0.3-0.4,0.2-1-0.2-1.3C93.1,59,92.5,59,92.2,59.4z"/>
	<path id="XMLID_1749_" class="st0" d="M156.7,359.3c-1.7,2.2-4.4,3.4-7.1,3.2c-2.8-0.2-5.2-1.8-6.5-4.3
		c-6.8-12.6-16.1-29.8-21.7-40.2c-1.4-2.7-3.9-4.6-6.9-5.2c-3-0.6-6,0-8.4,1.9L83,332.3c-0.6,0.5-1.4,0.6-2.1,0.5
		c-0.7-0.1-1.4-0.5-1.8-1.1c-2.5-3.6-6.4-8.8-10.3-13c-1.2-1.3-3.1-1.8-4.8-1.4c-1.7,0.4-3.1,1.8-3.6,3.5l-1.9,6.9l2.1-15.5
		c0.4-2.8,2.1-5.3,4.6-6.6l16.7-8.9c3.3,2.2,6.8,4.5,9.1,7.3c3.7,4.6,0.5,11.3-1.1,16.5c-2.4,2-4.4,3.7-6,5.2
		c-0.7,0.7-0.8,1.8-0.1,2.5c0.7,0.7,1.8,0.8,2.5,0.1c14.1-12.6,57.5-47.2,154.5-96.2c0.3-0.2,0.7,0,0.9,0.3l11.6,21.5h4.1
		l-12.6-23.2c-1.1-2-3.5-2.8-5.6-1.8c-1.8-2.1-2.6-4-2.6-6.5c2.1-1.2,4.1-2.4,6.1-3.7c2.3-1.5,4.5-3,6.6-4.6
		c4.3-3.2,8.5-6.6,12.5-10.3c3.9-3.7,7.6-7.7,10.8-12.2c1.6-2.2,3.1-4.5,4.4-7c1.3-2.4,2.4-5,3.2-7.7l1.2-3.8
		c0.4-1.3,0.7-2.6,1.1-3.9c0.4-1.3,0.6-2.6,0.9-4c0.3-1.3,0.6-2.6,0.8-4c0.2-1.3,0.5-2.7,0.7-4c0.2-1.3,0.4-2.7,0.5-4
		c0.3-2.7,0.5-5.4,0.5-8.1c0.2-5.4-0.1-10.8-0.8-16.2c-0.1-0.6-0.2-1.2-0.2-1.7c0.2,0.4,0.4,0.8,0.5,1.2l0.8,1.8
		c0.3,0.6,0.5,1.2,0.7,1.8c0.2,0.6,0.5,1.2,0.7,1.8l0.6,1.8c0.2,0.6,0.4,1.2,0.6,1.8c0.2,0.6,0.4,1.2,0.5,1.9
		c0.1,0.6,0.4,1.2,0.5,1.9c0.1,0.6,0.2,1.3,0.4,1.9l0,0c0,0.2,0.1,0.5,0.4,0.5c0.3,0.1,0.5-0.1,0.6-0.4l0-0.1c0.2-1,0.5-2.1,0.7-3.2
		c0.3-1.1,0.2-2.1,0.3-3.2c0.2-2.2,0-4.3-0.1-6.5c0-1.1-0.3-2.1-0.4-3.2c-0.2-1.1-0.3-2.1-0.5-3.2c-0.5-2.1-0.8-4.2-1.4-6.3
		c-0.6-2.1-1-4.2-1.7-6.2c-0.7-2-1.2-4.1-2-6.1c-0.7-2-1.4-4-2.2-6c-0.8-2-1.6-4-2.5-5.9l0-0.1c1.4,0.4,2.8,0.8,4.2,1.2
		c1.6,0.4,3.2,0.7,4.8,0.9c0.8,0.1,1.6,0.2,2.5,0.3c0.8,0.1,1.7,0.1,2.5,0.2c0.6,0,1.3-0.2,1.7-0.7c0.9-0.9,0.8-2.3,0-3.1l-0.1-0.1
		c-3-3-6-6-8.9-9.2c-2.9-3.1-5.8-6.3-8.6-9.5c-2.8-3.2-5.5-6.5-8.2-9.9c-2.7-3.3-5.5-6.6-8.4-9.9c-2.8-3.3-5.8-6.5-9-9.5
		c-3.2-3-6.5-6-10-8.6c-0.9-0.7-1.8-1.3-2.7-1.9c-0.9-0.6-1.8-1.3-2.7-1.9c-1.8-1.2-3.7-2.4-5.6-3.5l-2.8-1.7l-2.8-1.6
		c-1.9-1.1-3.8-2.1-5.7-3.1c-3.8-2.1-7.6-4-11.5-6l-11.5-5.9l-1.4-0.7l-1.5-0.7l-1.5-0.7l-1.6-0.7c-1.1-0.5-2.1-0.8-3.2-1.2
		c-1.1-0.4-2.2-0.7-3.2-1c-4.4-1.2-8.9-1.7-13.4-1.6c-2.3,0-4.5,0.2-6.7,0.5c-2.2,0.3-4.4,0.7-6.6,1.3c-0.6,0.2-1.3,0.4-1.9,0.6
		C152.2,4,103.6-7,64.8,22.8c-0.9,0.7-1.1,1.9-0.6,2.8c0.5,1,1.7,1.4,2.7,1.1c0,0,1-0.3,2.6-0.8c-13.5,7.6-24.9,17.9-32.8,29.9
		c-4.2,6.4-7,12-8.5,17.4c-0.3,0.9,0.1,1.9,0.9,2.5c0.4,0.3,0.8,0.4,1.3,0.4c0.5,0,1-0.2,1.4-0.5c1.2-1,2.7-2.1,4.2-3.3
		c-3.8,7.1-5.1,12.1-5.1,12.3c-0.8,3,0.5,5.4,2.3,7.1c-3.1,2.9-6.3,7.8-10.1,15.8l-1.6,3.4c-1.8,3.8-2.7,8-2.7,12.2v2.5
		c-0.8,1.2-4.3,6.5-5.2,8.6c-1.4,3.5-0.4,10.1,1,17.7c-1.9,2.7-4.1,5.5-6.5,8.3c-4.7,5.5-6.6,11.9-5.3,17.2c0.8,3,2.9,6.9,8.7,9.8
		c-1.2,0.5-2.3,1.1-3.1,1.8c-4.4,3.1-6.8,8.1-8,13.2c-0.1,0.2-0.1,0.5,0,0.7c0,0,0,0,0,0c-1.3,5.2,3.3,6.4,8.6,6
		c0,0.1-0.1,0.2-0.1,0.3c-1.3,3.1-2.3,5.3,0.4,8.1c2.3,2.3,4.3,4.4,7,5.1c-1.4,4.9,2.6,8.7,6.8,11.7c3.2,2.3,2.3,4.7-1.1,11
		l-0.4,0.7c0,0.1-0.1,0.1-0.1,0.2c-0.2,0.2-0.4,0.3-0.6,0.5c0,0-0.1,0.1-0.1,0.1c-9.2,7.1-8.5,19.9-15.5,28.7
		c-0.1,0.2-0.2,0.3-0.3,0.5c-1.2,0.8-0.8,3.2,1.1,3.4c2.4,0.3,4.9-0.3,6.9-1.6c-0.3,4.6,0.6,9.1,3.1,13.2
		c4.5,7.2,13.1,11.1,21.3,8.9c0.1,0,0.2-0.1,0.3-0.1c8,2.7,16.4,3.1,24.8,1.3c0.7-0.2,1.1-0.6,1.2-1.1c2.3-0.1,4.6-0.3,6.9-0.9
		l-6.9,3.7c-3.5,1.9-6,5.4-6.5,9.3L53.3,339c-0.2,1.4,0.8,2.8,2.2,3.1c1.4,0.3,2.8-0.6,3.2-2l5.2-18.4c0.1-0.5,0.5-0.8,1-0.9
		c0.5-0.1,1,0,1.3,0.4c3.8,4,7.5,9.1,10,12.6c1,1.4,2.5,2.4,4.2,2.6c1.7,0.3,3.5-0.2,4.8-1.2l22.9-17.5c1.6-1.2,3.6-1.6,5.5-1.2
		c1.9,0.4,3.6,1.6,4.5,3.4c5.6,10.4,14.9,27.6,21.7,40.2c1.9,3.5,5.4,5.8,9.4,6.1c0.3,0,0.6,0,1,0c3.6,0,7.1-1.7,9.3-4.6
		c12.5-16.2,33.1-36.8,52.4-54.8v-4.9C191.8,320.5,169.8,342.2,156.7,359.3z M95.1,316.2c1.3-4.3,2.3-8.8,0.1-12.6
		c-2.5-4.3-7.5-7.5-11.9-10.4c9.1-2.2,17.6-7,25.4-12.7c0.2-0.1,0.3-0.3,0.4-0.4c8.3-2.2,16.5-4.6,24-8.8c0.2-0.1,0.4-0.3,0.5-0.5
		c1.3-0.3,2.6-0.7,3.9-1.1c7.9-2.8,14-7.9,18.8-14.7c0.2-0.3,0.3-0.5,0.3-0.8c5.2-2.7,9.7-6.7,13-11.9c0.7-1.2-0.2-2.7-1.6-2.7
		c-2.2,0-4.6-0.3-6.7-1.1c-6-2-6.3-7.5-7.8-12.9c-2.1-7.7-4.4-15-7.7-22c1,0.5,2.1,1,3.2,1.4c1.3,0.5,2.2-0.6,2.2-1.7
		c0.1-0.4,0.1-0.9-0.3-1.4c-6.1-8.1-9.1-17.8-8.9-27.5c0.2-0.2,0.5-0.4,0.6-0.7c3.4-7.9,8.7-16.7,8.9-25.5c0-2.2-0.3-4.4-0.8-6.5
		c0.4-0.4,0.6-1,0.5-1.6c-1.9-11,3.5-20.7,11.1-28.2c0.2,0.1,0.3,0.1,0.5,0.2c2.3,1,4.5,2.2,6.6,3.5c0,0.2,0,0.4,0,0.7
		c0.5,7.5,1.3,20.1,9.7,26.6c0.2,0.2,0.5,0.3,0.8,0.3c0.4,0,0.8-0.2,1.1-0.5c0.5-0.6,0.4-1.4-0.2-1.9c-4.3-3.4-6.4-8.8-7.5-14.2
		c2.2,1.8,5,3.5,7.5,4.6c0.6,0.3,1.2,0.5,1.7,0.9c0.3,0.3,0.7,0.6,1.1,0.7c2.3,1.5,4.2,3.9,5.3,8.6c0.7,3,0,5.9-1.8,7.9
		c-1.3,1.5-3.2,2.3-4.7,2.1c-4.4-0.6-7.8,0.5-12.1,3.9c-2.2,1.7-4.5,2.5-6.2,2.1c-1.2-0.3-2.1-1.2-2.8-2.6c-0.7-1.5,0-2.2,2.5-3.7
		c1.8-1.1,4-2.5,3.3-4.9c-1.1-4.2-1.2-9-1-12.5c2.5,5,6.2,10.2,10.4,12.4c0.7,0.3,1.5,0.1,1.8-0.6s0.1-1.5-0.6-1.8
		c-4.7-2.5-9-9.8-11.3-15.9c-0.2-0.6-0.8-1-1.4-0.9c-0.6,0.1-1.1,0.5-1.2,1.1c-0.1,0.4-1.6,10.6,0.6,18.9c0.1,0.5-0.9,1.1-2.1,1.9
		c-2,1.2-5.3,3.3-3.6,7.1c1.3,2.8,3.2,3.8,4.6,4.2c0.5,0.1,1.1,0.2,1.6,0.2c2.2,0,4.6-1,6.9-2.7c3.7-2.9,6.4-3.8,10.1-3.3
		c2.4,0.3,5.1-0.8,7.1-3c2.5-2.7,3.4-6.5,2.5-10.3c-1.1-4.8-3.1-7.6-5.3-9.4c0.1-0.3,0.1-0.5,0.1-0.8l0-0.5c0-1.5-0.2-2.8-0.4-4.1
		c-0.2-1.3-0.4-2.6-0.7-3.9c-0.3-1.3-0.6-2.6-1-3.8c-0.4-1.3-0.8-2.5-1.3-3.7c-0.5-1.2-1-2.4-1.6-3.6c5.8,4.4,8.3,10.2,10.2,18
		c0.1,0.6,0.7,1,1.3,1c0.1,0,0.2,0,0.3,0c0.7-0.2,1.2-0.9,1-1.6c-1.9-8.1-4.7-16.5-15.3-22.2c-0.3-0.5-0.6-1-0.8-1.4
		c0.7,0.4,1.5,0.8,2.3,1.2c2.6,1.4,5.6,3.1,8.7,5.2c1.6,1,3.1,2.1,4.7,3.2c0.2,0.2,0.5,0.4,0.7,0.5c5.2,12.9,3.8,30-3.1,37.7
		c-2.3,2.5-3.6,5-4.7,7c-1,1.8-1.7,3.2-2.8,4.1c-2.1,1.8-5.6,1.1-5.6,1.1c-0.7-0.2-1.4,0.3-1.6,1s0.3,1.5,1,1.6c0.1,0,1,0.2,2.2,0.2
		c1.6,0,3.9-0.3,5.7-1.8c1.5-1.3,2.4-3,3.5-4.9c1.1-2,2.2-4.2,4.3-6.5c7-7.7,8.9-23.2,5-36.5c0,0,0,0,0.1,0.1
		c0.8,0.6,1.5,1.3,2.2,1.9c0.3,0.2,0.6,0.5,0.8,0.8c1.4,2.8,2.7,5.8,3.9,8.9c0,0.1,0,0.1,0,0.2c0,0.1-1.4,8.5-5.8,20.4
		c-1.5,4.1-2.1,7-2.6,9.2c-0.9,4.3-1.2,6.1-7.7,11.2c-3.9,3-6.9,5.9-9.5,8.4c-4.2,3.9-7.2,6.8-10.2,7c-4.6,0.4-8.3-0.8-10.5-3.2
		c-2.1-2.3-2.8-5.9-2-10c0.2-1-0.5-1.9-1.4-2.1c-1-0.2-1.9,0.5-2.1,1.4c-1,5.2,0,9.8,2.9,13c2.7,3,6.6,4.5,11.5,4.5
		c0.6,0,1.3,0,1.9-0.1c4.4-0.3,7.7-3.6,12.5-8c2.6-2.5,5.5-5.2,9.3-8.2c7.2-5.6,8-8.1,9-13.3c0.4-2.2,1-4.9,2.4-8.7
		c2.3-6.3,3.8-11.6,4.7-15.3c3.3,10.7,4.5,22.3,0.2,32.3c-7,16-24.1,34.5-24.3,34.7c-0.6,0.6-0.7,1.6-0.1,2.3
		c0.4,0.5,0.9,0.7,1.4,0.7c0.3,0,0.6-0.1,0.9-0.2c0.8-0.5,18.4-10.4,27.9-25.4c-0.2,4.6-0.6,10.4-1.6,14.4c-0.1,0.3-0.1,0.6,0,0.9
		l-2.9,3.8l-4.5,5.9c-1.5,1.9-3.1,3.9-4.6,5.8l-2.3,2.9l-2.4,2.8l-4.8,5.6l-4.9,5.5l0,0l0,0.1c0,0,0,0,0,0c-0.5,0.6-0.6,1.4-0.2,2.1
		c0.5,0.8,1.4,1,2.2,0.7c0,0,0.1,0,0.1,0c0.1,0,0.1-0.1,0.2-0.1l0,0c2.9-1.8,5.8-3.8,8.6-5.8c2.8-2,5.5-4.1,8.2-6.2
		c1.6-1.3,3.2-2.6,4.8-3.9c-0.9,1.1-1.9,2.3-2.9,3.4c-0.6,0.7-1.2,1.4-1.9,2.1c-0.6,0.7-1.3,1.4-1.9,2c-0.6,0.7-1.3,1.3-1.9,2
		l-2,1.9c-0.7,0.6-1.4,1.2-2,1.9c-0.7,0.6-1.4,1.2-2.1,1.8c-0.7,0.6-1.4,1.2-2.1,1.7l-2.2,1.6l0,0l0,0c-0.6,0.4-0.9,1.2-0.7,1.9
		c0.3,1,1.2,1.5,2.2,1.3c1.6-0.4,3-0.9,4.5-1.5c1.4-0.6,2.9-1.1,4.3-1.8c1.4-0.6,2.8-1.3,4.1-2c1.4-0.7,2.7-1.5,4-2.2
		c0.2,0,0.4,0.1,0.6,0l0.1,0c0,0,0.2,0,0.8-0.1c0.5-0.1,1.3-0.2,2.2-0.4c0.9-0.2,2-0.5,3.3-0.9c1.3-0.3,2.7-0.8,4.2-1.4
		c0.7-0.3,1.5-0.6,2.3-0.9c0.4-0.2,0.8-0.3,1.2-0.5c0.4-0.2,0.8-0.4,1.2-0.6c0.8-0.4,1.7-0.8,2.5-1.2c0.8-0.5,1.7-0.9,2.6-1.4
		c1.1-0.5,2.1-1.2,3.1-1.8c-0.7,4-0.1,7.4,2.7,11.1C158.8,269.7,116,299.6,95.1,316.2z M172.4,117.6c2.1,1.6,4,3.3,5.6,5.3
		c1.4,1.7,2.5,3.5,3.3,5.5c-3.5-1.7-6.6-3.9-7.9-5.6c-0.2-0.2-0.4-0.4-0.6-0.4C172.6,120.6,172.5,119,172.4,117.6z M152.2,12.1
		c2.8-1.2,5.6-2.2,8.5-3c2-0.5,4-0.9,6.1-1.2c2-0.2,4.1-0.5,6.2-0.4c4.1,0,8.2,0.4,12.2,1.5c1,0.3,2,0.5,3,0.9
		c1,0.3,1.9,0.7,2.9,1.1l1.4,0.6l1.5,0.7l1.4,0.7l1.4,0.7l11.5,5.9c3.8,2,7.6,4,11.4,6c1.9,1,3.8,2,5.6,3.1l2.8,1.6l2.7,1.6
		c1.8,1.1,3.6,2.2,5.4,3.4c0.9,0.6,1.7,1.2,2.6,1.8c0.9,0.6,1.7,1.2,2.6,1.9c3.4,2.5,6.5,5.3,9.6,8.2c3,3,5.9,6.1,8.7,9.3
		c2.8,3.2,5.6,6.5,8.3,9.8c2.7,3.3,5.5,6.7,8.3,9.9c2.8,3.3,5.7,6.5,8.7,9.7c1.5,1.6,3,3.2,4.5,4.7c-0.9-0.2-1.8-0.3-2.7-0.6
		c-1.5-0.3-2.9-0.7-4.4-1.2c-0.7-0.2-1.4-0.5-2.1-0.7c-0.5-0.2-1-0.4-1.5-0.6c-1-1.9-2-3.8-3-5.6c-0.5-1-1.1-1.9-1.6-2.8l-1.7-2.7
		c-1.1-1.9-2.3-3.6-3.5-5.4l-1.8-2.7c-0.6-0.9-1.3-1.7-1.9-2.6c-1.3-1.7-2.6-3.4-4.1-5c-0.7-0.8-1.5-1.6-2.2-2.4
		c-0.7-0.8-1.5-1.6-2.3-2.3c-1.6-1.4-3.2-2.8-4.9-4.1c-0.2-0.1-0.4-0.2-0.6,0c-0.2,0.2-0.3,0.5-0.2,0.7l0,0c1.2,1.8,2.4,3.5,3.7,5.2
		c1.2,1.7,2.4,3.4,3.6,5.1c0.6,0.8,1.3,1.7,1.8,2.6l1.8,2.6l1.8,2.6l1.7,2.6c1.1,1.8,2.3,3.5,3.3,5.3c1,1.8,2.1,3.6,3.1,5.4
		c1,1.8,2,3.7,2.9,5.5l2.7,5.6l2.5,5.7c0.8,1.9,1.6,3.9,2.3,5.8c0.4,1,0.7,1.9,1.1,2.9l1,2.9c0.7,2,1.2,4,1.9,6c0.6,2,1,4,1.5,6
		c0,0,0,0,0,0c-0.2-0.4-0.3-0.9-0.5-1.3c-0.5-1.2-1.1-2.5-1.7-3.7c-0.6-1.2-1.2-2.4-1.9-3.6c-0.7-1.2-1.4-2.3-2.2-3.4l-0.1-0.1
		c-0.5-0.6-1.3-0.9-2.1-0.6c-0.9,0.3-1.4,1.4-1.1,2.3l0,0c0.8,2.5,1.5,5,2,7.6l0.4,1.9l0.3,1.9c0.2,1.3,0.4,2.6,0.6,3.9
		c0.7,5.2,1,10.4,0.8,15.6c-0.1,2.6-0.2,5.2-0.5,7.8c-0.1,1.3-0.3,2.6-0.5,3.9c-0.2,1.3-0.4,2.6-0.6,3.9c-0.2,1.3-0.5,2.6-0.8,3.9
		c-0.3,1.3-0.5,2.6-0.9,3.8c-0.3,1.3-0.7,2.5-1,3.8l-1.2,3.8c-0.8,2.4-1.8,4.8-3,7c-1.2,2.3-2.6,4.4-4.1,6.5
		c-3.1,4.2-6.6,8.1-10.4,11.7c-3.8,3.6-7.9,6.9-12.1,10c-2.1,1.6-4.3,3.1-6.5,4.5c-1.1,0.7-2.3,1.5-3.4,2.2c0.1-0.4,0.3-0.9,0.4-1.4
		c1-0.7,1.9-1.4,2.8-2.1c1.6-1.3,3.3-2.6,4.9-4c1.5-1.4,3.1-2.8,4.5-4.2c1.4-1.4,2.7-2.8,3.9-4.2c1.2-1.4,2.3-2.7,3.2-3.9
		c1-1.2,1.9-2.3,2.6-3.4c0.7-1.1,1.4-2,1.9-2.7c1-1.5,1.6-2.4,1.6-2.4c0.1-0.2,0.1-0.4-0.1-0.6c-0.2-0.2-0.5-0.2-0.6,0l0,0
		c0,0-0.7,0.7-2,2.1c-0.6,0.7-1.4,1.5-2.2,2.4c-0.8,0.9-1.9,1.9-3,3c-1.1,1.1-2.3,2.3-3.6,3.5c-1.3,1.2-2.7,2.4-4.1,3.7
		c-1.5,1.2-3,2.5-4.5,3.8c-0.8,0.7-1.6,1.2-2.4,1.8c-0.8,0.6-1.6,1.2-2.4,1.8c-1.7,1.2-3.4,2.3-5,3.4c-1.7,1-3.4,2.1-5,3
		c-0.8,0.5-1.6,0.9-2.4,1.3c-0.8,0.4-1.6,0.8-2.4,1.2c-0.9,0.5-1.8,0.9-2.7,1.2l0.2-0.2c1.2-0.9,2.5-1.8,3.6-2.8l3.5-2.9
		c1.2-1,2.3-2,3.4-3c1.1-1,2.3-2,3.3-3.1c1.1-1.1,2.2-2.1,3.2-3.2c1.1-1.1,2.1-2.2,3.1-3.4l3-3.4c1-1.2,1.9-2.4,2.8-3.6
		c0.9-1.2,1.8-2.4,2.7-3.6c0.1-0.1,0.1-0.3,0-0.4c-0.1-0.1-0.3-0.1-0.4,0l0,0c-1.1,1-2.2,2.1-3.3,3.1c-1.1,1-2.1,2.1-3.2,3.1
		l-3.3,3.1c-1.1,1-2.2,2.1-3.3,3c-1.1,1-2.2,2-3.3,3c-1.1,1-2.3,1.9-3.4,2.9c-1.2,0.9-2.3,2-3.5,2.8l-3.5,2.7
		c-1.2,0.9-2.4,1.7-3.6,2.6l-1.8,1.3l-1.9,1.2c-1.2,0.8-2.5,1.7-3.7,2.4c-1.3,0.8-2.5,1.6-3.8,2.3c-1.3,0.7-2.6,1.5-3.9,2.1
		c-0.3,0.2-0.6,0.3-0.9,0.5l1.3-1.3c0.7-0.7,1.3-1.4,2-2c0.7-0.7,1.3-1.4,2-2.1c0.6-0.7,1.3-1.4,1.9-2.1c1.3-1.4,2.5-2.9,3.7-4.3
		c1.2-1.5,2.4-2.9,3.6-4.4c2.3-3,4.6-6,6.7-9.2l0,0c0-0.1,0.1-0.1,0.1-0.2c1.5-1.4,2.9-2.8,4.4-4.3c2.4-2.4,4.8-4.9,7.2-7.4
		c2.3-2.5,4.6-5.1,6.8-7.8c2.2-2.7,4.3-5.4,6.2-8.2c0.1-0.1,0.1-0.3,0-0.5c-0.1-0.1-0.4-0.1-0.5,0l-7.3,7.2
		c-2.4,2.4-4.8,4.8-7.3,7.1c-2.4,2.4-4.9,4.7-7.4,7c-2.5,2.3-5,4.6-7.5,6.8c-2.5,2.3-5.1,4.5-7.7,6.6c-2.6,2.2-5.2,4.3-7.9,6.4
		c-0.7,0.5-1.4,1.1-2.1,1.6c1-1.2,1.9-2.4,2.9-3.6c1.5-2,3-4,4.5-6c1.5-2,2.9-4.1,4.3-6.1c1.4-2.1,2.8-4.1,4.1-6.2
		c0.7-1,1.3-2.1,1.9-3.2c0.6-1.1,1.2-2.2,1.9-3.2c1.2-2.2,2.3-4.4,3.3-6.7c0-0.1,0-0.2-0.1-0.3c-0.1-0.1-0.3-0.1-0.4,0
		c-1.7,1.9-3.2,3.8-4.7,5.8c-0.5,0.6-1,1.2-1.4,1.8c0.9-7.6,0.7-16.1,0.7-16.5c0-0.9-0.6-1.6-1.5-1.7c-0.8-0.2-1.7,0.3-2,1.1
		c-3.8,9.3-11.9,17.2-18.7,22.7c5.5-6.9,12.1-16.3,16-25.2c5.8-13.2,2.6-28.9-2.6-41.9c0.6,0.7,1.1,1.3,1.7,2
		c1.1,1.3,2.1,2.5,2.9,3.7c0.9,1.2,1.7,2.3,2.4,3.3c0.7,1,1.3,1.9,1.8,2.6c1,1.5,1.6,2.3,1.6,2.3l0,0c0,0,0.1,0.1,0.1,0.1
		c0.1,0,0.1-0.1,0.1-0.2c0,0-0.2-1-0.6-2.8c-0.3-0.9-0.6-1.9-1-3.1c-0.5-1.2-1-2.5-1.7-3.9c-0.7-1.4-1.6-2.9-2.6-4.3
		c-1-1.5-2.2-3-3.4-4.5c-1.3-1.5-2.6-3-4.1-4.4c-1.4-1.5-3-2.9-4.6-4.2c-1.6-1.3-3.2-2.6-4.9-3.8c-1.7-1.2-3.3-2.3-5-3.3
		c-1.6-1.1-3.3-2-4.8-2.8c-1.6-0.8-3-1.6-4.4-2.3c-2.8-1.4-5.2-2.3-6.9-2.9c-0.7-0.2-1.2-0.4-1.7-0.6c-0.3-0.3-0.5-0.7-0.8-1
		c-0.8-1-1.7-2-2.6-3c-0.9-1-1.8-1.9-2.8-2.8c-1-0.9-1.9-1.8-2.9-2.6c-1-0.8-2-1.7-3.1-2.4c-1.1-0.8-2.1-1.5-3.3-2.2
		c-1.1-0.7-2.3-1.3-3.4-1.9c-1.2-0.6-2.4-1.1-3.5-1.6c-0.2-0.1-0.5,0-0.6,0.1c-0.2,0.2-0.2,0.6,0,0.8l0,0c0.9,0.9,1.9,1.7,2.8,2.6
		l1.4,1.3c0.5,0.4,0.9,0.8,1.4,1.3c0.9,0.9,1.8,1.7,2.7,2.6l1.3,1.3l1.3,1.3c0.9,0.9,1.7,1.8,2.5,2.7c0.8,0.9,1.6,1.8,2.4,2.8
		c0.8,0.9,1.5,1.9,2.3,2.9c0.7,1,1.4,2,2.1,3c0.7,1,1.3,2,2,3.1c0.6,1,1.2,2.1,1.8,3.2c0.6,1.1,1.1,2.2,1.6,3.3
		c0.5,1.1,1,2.2,1.5,3.3c0,0,0,0.1,0,0.1c-1.4-1.3-2.8-2.4-4.3-3.5c-2.8-2-5.8-3.6-9-5c-3.1-1.4-6.3-2.5-9.5-3.5
		c-3.2-0.9-6.5-1.7-9.8-2.3c-3.3-0.6-6.4-1.1-9.6-1.8c-3.2-0.7-6.3-1.5-9.2-2.5c-3-1-5.8-2.3-8.2-4c-2.4-1.7-4.4-3.9-5.9-6.5
		c-1.5-2.6-2.5-5.5-3.3-8.6c-0.2-0.8-0.4-1.5-0.5-2.3l-0.2-1.2l-0.1-0.3l0-0.3l-0.1-0.6c-0.3-1.5-0.4-3.1-0.5-4.6
		c-0.1-3.1,0.1-6.2,0.8-9.2c0.7-3,1.8-5.9,3.2-8.7c1.2-2.3,2.7-4.6,4.3-6.7c-5,17.2-2.6,36.7,17,48.5c0.3,0.2,0.6,0.3,0.9,0.3
		c0.6,0,1.2-0.3,1.5-0.9c0.5-0.9,0.2-2-0.6-2.5c-21.2-12.8-20.2-35.8-12-53.4c1.3-1.4,2.7-2.8,4.1-4.1c-2.2,9.7-3.2,27.8,13.4,41.8
		c0.3,0.3,0.8,0.4,1.2,0.4c0.5,0,1-0.2,1.4-0.6c0.6-0.8,0.5-1.9-0.2-2.5c-21.7-18.3-10.8-43.5-10.3-44.5c0.1-0.3,0.2-0.6,0.1-0.8
		c1.6-2,3.5-3.9,5.6-5.7c0.3-0.1,0.5-0.3,0.7-0.6c2.3-1.9,4.7-3.5,7.3-5c-4.1,8.8-3.8,20.2,1.1,31.6c9.4,21.5,36.8,46.1,85.5,50.5
		c0.1,0,0.1,0,0.2,0c0.9,0,1.7-0.7,1.8-1.6c0.1-1-0.5-1.8-1.5-2c-0.3-0.1-34.9-6.7-50.6-28.1c-0.6-0.8-1.7-1-2.5-0.4
		c-0.8,0.6-1,1.7-0.4,2.5c7.3,10.1,18.4,17,28.4,21.6c-31.8-8.7-50.4-27.3-57.7-43.9c-5.4-12.4-4.9-24.8,1.5-33
		C152.1,12.3,152.2,12.2,152.2,12.1z M119.2,102.2C119.2,102.2,119.2,102.2,119.2,102.2c-0.6-0.1-1.4-0.2-2.3-0.3
		C117.8,102,118.6,102.1,119.2,102.2z M107.1,100.9c-1.4-0.1-3-0.3-4.6-0.4C104.1,100.6,105.6,100.8,107.1,100.9z M47.7,87.2
		c-1.8,0-3.4,0-4.7,0.1c-0.1,0-0.1,0-0.2,0c3.8-9.8,27.3-46.9,81.8-58.5c-4,3.8-7.9,7.7-11.3,12.2c-2.1,2.7-4,5.5-5.6,8.6
		c-1.6,3.1-2.8,6.3-3.6,9.7c-0.8,3.4-1.1,6.9-0.9,10.4c0.1,1.7,0.3,3.5,0.5,5.2l0.1,0.6l0.1,0.6l0.2,1.2c0.2,0.8,0.4,1.7,0.6,2.5
		c0.8,3.3,1.9,6.6,3.7,9.7c0.3,0.6,0.7,1.1,1.1,1.7C99.4,90.3,64.6,87.2,47.7,87.2z M79.7,99.1c4.1,0.2,8.2,0.4,12,0.6
		C87.8,99.4,83.8,99.2,79.7,99.1c-1.5-0.1-2.9-0.1-4.3-0.1C76.8,99,78.2,99,79.7,99.1z M54,99.5c-0.1,0-0.2,0-0.3,0h0
		C53.9,99.5,54,99.5,54,99.5z M48.3,88.1c-0.2,0-0.4,0-0.6,0c0,0,0.1,0,0.1,0C47.9,88.1,48.1,88.1,48.3,88.1z M35.3,67
		c1.3-2.7,3-5.6,5-8.7c8.1-12.2,19.7-22.4,33.7-29.8C84.7,23,96.8,19,110.2,16.6c1.1-0.2,1.9-1.2,1.9-2.4s-1-2.1-2.1-2.1
		c-0.3,0-8.5-0.4-20,2.8c-2.4,0.7-4.8,1.4-7.3,2.1c26.4-13,54.1-10.8,67-8.7c-0.9,0.4-1.7,0.8-2.5,1.2c-3.9,2-7.5,4.3-10.9,7.1
		c-52.6,2.7-79.8,26-93.3,44.5c-2,1.6-4.4,3.5-6.9,5.4C35.7,66.7,35.5,66.8,35.3,67z M35.1,85.6c0.1-0.2,2.6-9.6,10.8-21.2
		c0,0,0.1-0.1,0.1-0.1c0.4-0.3,0.6-0.7,0.8-1.1C59.3,46.2,84,25.3,130.9,21.5c-0.9,0.9-1.7,1.9-2.4,2.9
		C70.7,34.9,42.2,75.1,38.9,87.8c0,0.1,0,0.2,0,0.3c-0.7,0.2-1.3,0.5-2,0.8C35.7,88.1,34.8,87,35.1,85.6z M38.2,139.9l-6.6,7.7
		c0,0,0,0,0,0l0,0L38.2,139.9z M40.5,134.5c-0.3,1-0.6,2.2-1.1,3.3C39.9,136.7,40.3,135.6,40.5,134.5z M31.7,102.1
		c0.1-0.2,0.3-0.3,0.4-0.5c0.2-0.3,0.5-0.7,0.7-0.9c0.2,0.5,0.5,1.8,0.8,5.1c0.2,3.5,0.4,6.5,0.6,9.3c1.5,22,1.5,22-2.4,26.8
		c-0.4,0.5-0.8,1-1.2,1.5c-2.1,2.8-3.1,3-3.3,3c-0.3,0-0.5-0.6-0.6-1.1c-0.5-2.1-3.3-16.9-4.2-23.7
		C22.3,119.9,27.7,107.5,31.7,102.1z M28.5,149.1C28.5,149.1,28.5,149.1,28.5,149.1c-0.1,0-0.1,0-0.2,0
		C28.4,149.1,28.5,149.1,28.5,149.1z M23.4,140.9l1.2,5.2c0.3,1.5,1.5,2.7,3,3c-1.5-0.3-2.7-1.5-3-3L23.4,140.9L23.4,140.9z
		 M18.5,132.4c0.4,3.2,1,9,0.3,11.7c-0.2,0.4-0.3,0.8-0.5,1.2c-0.2,0.3-0.7,1.1-1.1,1.8c0-0.3-0.1-0.7-0.1-1
		C16.1,138.4,15.8,136.5,18.5,132.4z M6.2,176.4c-0.3-1.2-0.4-2.5-0.2-3.9c0,0,0.1,0,0.1,0c0.5,0.2,1,0.3,1.5,0.3
		c1.2,0,2.5-0.5,4.1-1.5c0.5-0.3,1.1-0.7,1.6-1c3.9-2.6,6.4-4.1,9.4-1.7c1.5,1.2,3.3,1.4,4.8,0.6c1.1-0.6,1.7-1.5,1.9-2.7
		c0.4,1,0.7,2,0.8,3.2c0.4,5.1-2,8.5-4.5,10.5c1.2-5.5-3.1-7.1-6.9-4.8c-3.2,1.9-6.7,2-7,4.4c-0.3,2.4,5.3,5.1,7.7,5.7l5.2-2.5
		c0,0,0,0,0,0c4.2-2.2,7.8-7,7.3-13.5c0,0,0,0,0,0c1.3,2.2,2.3,4.6,3.7,8c0.3,0.8,0.7,1.6,1.1,2.5c0.1,0.3,0.5,0.6,0.8,0.6
		c0.1,0,0.2,0,0.3-0.1c0.5-0.2,0.7-0.7,0.5-1.2c-0.4-0.9-0.7-1.7-1.1-2.5c-2.2-5.3-3.5-8.5-6.8-12.4c-0.1-0.2-0.3-0.3-0.5-0.3
		c-0.9-1.2-2-2.2-3.4-2.9c-2.8-1.3-5.9-1.1-8.4,0.7c-0.4,0.3-0.5,0.8-0.2,1.3s0.8,0.5,1.3,0.2c1.3-0.9,2.7-1.3,4.2-1.2
		c0,0,0.1,0,0.1,0.1c2.4,0.9,3.9,2.2,4,3.5c0.1,0.7-0.3,1.4-1,1.7c-0.8,0.4-1.9,0.3-2.8-0.5c-4.2-3.3-7.9-0.8-11.5,1.6
		c-0.5,0.3-1,0.7-1.5,1c-1.7,1.1-3,1.4-3.9,1.1c-0.2-0.1-0.4-0.2-0.5-0.4c0.7-2.7,2.2-5.5,4.4-8.1c5.3-6.3,10.2-12.5,12.2-19.6
		l0.8,3.4c0.4,1.8,1.9,3.3,3.7,3.7c0.3,0.1,0.7,0.1,1,0.1c1.5,0,2.9-0.7,3.8-1.9l6.6-7.6l0,0l0,0c1.9-2.8,2.8-6.3,3-8.5
		c0.4-4.3,0.7-9.4,1-14.3c0.4-6.4,0.7-12.5,1.2-16.2c0.9-0.1,2.6-0.3,5-0.5c14.2,1.3,23.5,4.7,24.7,9.2c0.9,3.2-2.7,6.5-6,8.7
		c-15.6,10.6-20.1,18.4-24.4,25.8c-0.5,0.8-0.9,1.6-1.4,2.4c-0.3,0.4-0.1,1,0.3,1.2c0.1,0.1,0.3,0.1,0.5,0.1c0.3,0,0.6-0.2,0.8-0.4
		c0.5-0.8,0.9-1.6,1.4-2.4c4.2-7.3,8.6-14.8,23.9-25.2c5.4-3.7,7.6-7.3,6.7-10.7c-1.2-4.3-7.5-7.5-17.7-9.3c3.8-0.2,8.3-0.4,13-0.4
		c2.9,0,5.9,0.1,8.7,0.2c17.5,0.7,33.1,2.4,38.8,3c-4.5,5.3-6.4,12.4-4.9,19.5c0,0,0,0,0,0.1c-1.9,9.5,5,20.6,10.7,27.6
		c0.2,0.2,0.4,0.4,0.6,0.5c4.4,18.9-1.9,40.9-8,58.3c-0.1,0.2-0.1,0.4-0.1,0.6c-2.9,5-4.6,10.6-5.1,16.3c-0.1,0.1-0.2,0.3-0.3,0.5
		c-4.7,11.7-17.3,17.7-29.8,18.5c-0.2-0.1-0.4-0.3-0.8-0.3c-14.4-2.1-23.4-15.1-29.9-27c-3-5.5-5.3-11.4-8.8-16.2
		c0-0.3-0.1-0.6-0.3-0.9c-4.5-7.5-14.1-15.3-23.3-12.7c-0.7-1.7-2.7-2.5-3.5-2.8C10.1,182.9,7.1,180.1,6.2,176.4z M19.9,222.4
		c0.6-0.1,1.2-0.2,1.8-0.4c2-0.5,3.4-1.2,4.4-1.7c1.6-0.8,2-1,3.1-0.4c3,1.6,7.4,1.2,7.9,1.1c1-0.1,1.7-1,1.6-2c-0.1-1-1-1.7-2-1.6
		c-1.1,0.1-4.2,0.2-5.9-0.7c-2.8-1.5-4.5-0.6-6.4,0.3c-1,0.5-2.1,1-3.8,1.5c-3.9,1.1-5.3-0.1-9.1-3.9c-0.9-1-1-1,0.3-4.2
		c0.3-0.6,0.6-1.4,0.9-2.2c3.6-0.6,7-1.7,8.6-2.3c4.4,1.3,8.4,3.9,11.9,7.5c0.7,0.7,1.7,0.6,2.4,0.1c6.5,9.6,11.3,23.8,4.5,33.3
		c0-0.2,0-0.3,0-0.5c0.6-1.2-1-3.1-2.6-2.3c-3.6,1.6-7.3,3.4-10.4,5.7c0.3-1.2,0.7-2.4,1-3.7c0.4-1.3-0.6-2.2-1.8-2.2
		c2.3-4.6,3.5-9.1-1.5-12.7C19.4,227,18.9,224.7,19.9,222.4z M50,293.3c-2.1-0.9-3.1,2.6-1,3.5c1.3,0.5,2.6,1,3.9,1.4
		c-7.4,0.1-14.7-1.6-21.4-5.3c-2-1.1-3.9,2-1.8,3.1c0.2,0.1,0.5,0.2,0.7,0.4c-5.3-0.7-10-4.2-12.3-9.2c-3.3-7.1-1.6-15.3,2.3-21.8
		c1.2-2-1.9-3.8-3.1-1.8c-1.4,2.3-2.5,4.8-3.3,7.4c-0.1,0.1-0.2,0.2-0.3,0.4c-1,1.8-2.5,3.1-4.3,3.7c5.1-8.7,5.5-20.8,14.4-26.5
		c-0.6,2.1-1.1,4.2-1.7,6.3c-1.1,1.5-2,3.3-2.6,5.2c-0.7,2.2,2.8,3.2,3.5,1c0.5-1.4,1.1-2.7,1.9-3.8c0.3-0.2,0.5-0.5,0.6-0.8
		c3.2-4.1,8.3-6.6,13.1-8.7c0,0.6,0,1.2-0.1,1.8c-0.1,0.3-0.2,0.6-0.1,0.9c0,0,0,0.1,0,0.1c-0.1,0.6,0.3,1,0.7,1.1
		c0.6,0.5,1.6,0.7,2.3-0.1c11.8-12.3,3.6-33.2-6.1-44.4c-0.2-0.3-0.4-0.6-0.6-0.7c-0.1-0.1-0.2-0.3-0.4-0.4c-1.2-1.2-2.8-0.2-3,1.1
		c-2.7-1.9-5.6-3.4-8.7-4.3c-0.3-0.2-0.7-0.4-1.1-0.3c-3.9-1-8.1-1-12.5,0c-1.5,0.4-1.6,2.1-0.8,3c-2.1,0.1-4.1-0.1-4.4-0.9
		c0,0,0-0.1,0-0.1c0.5-3.6,2.9-6.5,6.2-8c1.8-0.8,0.8-3.1-0.9-3.3c0.3-0.3,0.6-0.6,1-0.8c1-0.7,2.7-1.7,4.1-2
		c-0.7,1.4,0.8,3.5,2.5,2.4c4.1-2.6,8.4-2,12.2,0c-1,0.8-1.1,2.8,0.5,3.3c12.1,3.9,15.6,19.4,21.7,29.2c4.5,7.3,10.2,14.5,17.5,19
		c-1.9,0-2.6,3-0.5,3.5c15.4,3.5,34.4-1,43.5-14.2c0.1,0.9,0.2,1.8,0.3,2.7c0.3,2.3,3.8,1.3,3.5-1c-1.6-10.4,1.3-20.7,8-28.8
		c0.9-1.1,0.2-2.6-0.8-3c6.7-20.6,11.6-45.3,1.6-64.9c-0.9-1.7-3.1-0.8-3.3,0.7c-3-5.4-5.1-11.6-3.5-16.8c1.4-4.8,5.5-10.9,9.2-14.2
		c1.7-1.5-0.8-4.1-2.6-2.6c-2.5,2.2-5.1,5.4-7.1,8.9c0.9-4.9,3.6-9.3,7.8-12.3c0.1,0,0.2,0.1,0.3,0.1c3.2,1.1,6.5,1.9,9.8,2.6
		c3.2,0.7,6.6,1.3,9.7,1.8c3.2,0.6,6.3,1.3,9.3,2.2c1.6,0.5,3.2,1,4.8,1.6c-5.8,6.1-10,13.3-11.1,21.3c-0.9-3-1.6-6-1.4-9.2
		c0.1-2.3-3.5-2.3-3.6,0c-0.3,7.7,3.7,14.2,5,21.6c1,5.5-0.6,11.1-2.8,16.5c0.2-0.5,0.3-0.9,0.5-1.4c0.9-2.2-2.6-3.1-3.5-1
		c-5.3,13.1-4.3,28,2.6,40.2c-0.9-0.7-1.8-1.5-2.5-2.4c-0.7-1.2-1.5-2.4-2.3-3.6c-1.2-1.7-3.8-0.5-3.4,1.2c0,0.3,0,0.7,0.3,1.1
		c0.8,1.3,1.6,2.5,2.6,3.6c3.3,5.4,6.1,11.1,8,17.2c2.2,6.7,2.8,14.3,5.7,20.7c2.1,4.5,7.1,6.4,11.9,7c-5,6.4-12.3,10.4-20.5,11.2
		c-2.3,0.2-2.3,3.8,0,3.6c2.1-0.2,4.2-0.6,6.2-1.2c-8.7,9.8-20.4,11.4-33.4,13.1c-2.3,0.3-2.3,3.9,0,3.6c1.1-0.1,2.2-0.3,3.4-0.4
		c-8.3,2.9-17,4.7-25.3,7.3c-2.2,0.7-1.3,4.2,1,3.5c0.7-0.2,1.4-0.4,2.1-0.6c-9.2,5.4-19.3,9-30.2,7.5c-2.3-0.3-3.3,3.1-1,3.5
		c1.7,0.2,3.3,0.4,4.9,0.4C64.9,296.6,57.2,296.3,50,293.3z"/>
	<rect id="XMLID_1748_" x="203.7" y="260.5" class="st0" width="550.5" height="7.2"/>
	<polygon id="XMLID_1745_" class="st0" points="246.8,306.5 228.5,306.5 228.5,282.6 218.7,282.6 218.7,343.3 228.5,343.3 
		228.5,316.2 246.8,316.2 246.8,343.3 256.7,343.3 256.7,282.6 246.8,282.6 	"/>
	<path id="XMLID_1742_" class="st0" d="M279.4,281l-19.7,62.3h10.4l4.2-12.8h17.6l3.9,12.8h10.5L287.1,281H279.4z M277.1,320.8
		l5.6-22.1h0.1l6.3,22.1H277.1z"/>
	<polygon id="XMLID_1741_" class="st0" points="327.9,282.6 318.2,303.7 309.3,282.6 297.9,282.6 313.6,315.4 313.6,343.3 
		323.4,343.3 323.4,315.4 339.4,282.6 	"/>
	<path id="XMLID_723_" class="st0" d="M350.8,281L331,343.3h10.4l4.2-12.8h17.6l3.9,12.8h10.5L358.4,281H350.8z M348.4,320.8
		l5.6-22.1h0.1l6.3,22.1H348.4z"/>
	<path id="XMLID_625_" class="st0" d="M403.2,281c-7.2,0-13.2,3.1-17.9,9.4c-4.7,6.3-7.1,13.8-7.1,22.5c0,8.9,2.4,16.4,7.1,22.7
		c4.7,6.3,10.7,9.4,18,9.4c7.2,0,13.2-3.1,18-9.4c4.7-6.3,7.1-13.8,7.1-22.7c0-8.7-2.4-16.2-7.1-22.5
		C416.4,284.1,410.4,281,403.2,281z M413.6,326.5c-3,4.5-6.4,6.8-10.4,6.8c-4,0-7.4-2.3-10.4-6.8s-4.4-9.2-4.4-14.1
		c0-5.1,1.4-9.7,4.3-13.7c2.8-4,6.4-6,10.6-6c4.2,0,7.7,2,10.6,6c2.8,4,4.3,8.6,4.3,13.7C418.1,317.3,416.6,321.9,413.6,326.5z"/>
	<polygon id="XMLID_623_" class="st0" points="489.5,281 477.6,321 465.1,281 458.1,281 449.6,343.3 459.5,343.3 464,305.6 
		464.2,305.6 475.2,344.1 478.7,344.1 490.1,305.6 490.3,305.6 494.3,343.3 504.2,343.3 496.6,281 	"/>
	<rect id="XMLID_620_" x="508.6" y="282.6" class="st0" width="9.9" height="60.7"/>
	<polygon id="XMLID_618_" class="st0" points="550.9,282.6 541.3,303.7 532.4,282.6 520.9,282.6 536.6,315.4 536.6,343.3 
		546.5,343.3 546.5,315.4 562.5,282.6 	"/>
	<path id="XMLID_600_" class="st0" d="M638.3,282.6h-34.5v10.3h18.9l-22.1,50.1l-19.1-62h-7.7l-19.7,62.3h10.4l4.2-12.8h17.6
		l3.9,12.8h10.3h0.3h36.4V333h-21L638.3,282.6z M571.5,320.8l5.6-22.1h0.1l6.3,22.1H571.5z"/>
	<path id="XMLID_591_" class="st0" d="M657.8,281L638,343.3h10.4l4.2-12.8h17.6l3.9,12.8h10.5L665.4,281H657.8z M655.4,320.8
		l5.6-22.1h0.1l6.3,22.1H655.4z"/>
	<polygon id="XMLID_589_" class="st0" points="725.4,282.6 713.3,282.6 697.6,308.2 697.5,308.2 697.5,282.6 687.6,282.6 
		687.6,343.3 697.5,343.3 697.5,316 697.6,316 713.8,343.3 726.5,343.3 706.2,310.6 	"/>
	<rect id="XMLID_583_" x="729.2" y="282.6" class="st0" width="9.9" height="60.7"/>
	<path id="XMLID_582_" class="st0" d="M427.7,213.6l-0.2,17.8c0,0.5,0.1,0.8,0.2,1c0.1,0.1,0.5,0.2,1.1,0.2h7.1c0.5,0,0.9-0.1,1-0.2
		c0.1-0.1,0.2-0.5,0.2-1v-9.4h18.5v4.7c0,0.5,0.1,0.8,0.2,1c0.1,0.1,0.5,0.2,1,0.2h6.8c0.5,0,0.9-0.1,1-0.2c0.1-0.1,0.2-0.5,0.2-1
		l-0.2-17.1v-13.1h43.5V231c0,1.4-0.2,2.3-0.7,2.8c-0.4,0.5-1.3,0.7-2.7,0.7c-3.2,0-6.8-0.3-10.8-0.8c1.5,2.2,2.5,4.9,3.1,8.1
		c0.3,1.5,0.5,2.4,0.8,2.7c0.3,0.5,1,0.7,2.1,0.7c0.2,0,0.6,0,1.4,0c7.1,0,11.8-0.9,14.1-2.6c2.4-1.9,3.6-5.6,3.6-11.2l-0.1-13.6
		v-21.3l7.2,0.1c0.7,0,1.1-0.4,1.1-1.2v-8.2c0-0.8-0.4-1.2-1.1-1.2l-15.1,0.2h-46.3v-6.7c0-5.4,0.2-8.8,0.5-10.3
		c0-0.3,0.1-0.7,0.3-1.3c0.2-0.6,0.3-1.1,0.3-1.4c0-0.5-0.5-0.9-1.6-1.1c-3-0.4-6-0.7-9.2-0.7c0.5,3.4,0.8,8.7,0.8,15.9v30.9H451
		v-51.1c0-6,0.1-9.8,0.4-11.2c0.1-0.2,0.2-0.7,0.5-1.4c0.2-0.6,0.3-1.1,0.3-1.5c0-0.8-0.6-1.3-1.7-1.4c-2.4-0.3-5.6-0.5-9.7-0.7
		c0.4,4.6,0.7,10,0.7,16.2v50.9h-4.4v-32.4c0-5.8,0.2-9.4,0.5-10.8c0-0.1,0.1-0.4,0.2-0.9c0.1-0.4,0.2-0.8,0.2-1
		c0-0.7-0.5-1.1-1.5-1.3c-1.7-0.1-4.8-0.3-9.5-0.5c0.4,4.2,0.5,9.5,0.5,16V213.6z"/>
	<path id="XMLID_578_" class="st0" d="M491.2,231c0.1,0.1,0.5,0.2,1.1,0.2h6.9c0.5,0,0.9-0.1,1-0.2c0.1-0.1,0.2-0.5,0.2-1.1
		l-0.2-12.9v-6.5l0.2-7.5c0-0.5-0.1-0.9-0.2-1c-0.1-0.1-0.5-0.2-1-0.2l-9.1,0.2h-9l-9.2-0.2c-0.7,0-1.1,0.4-1.1,1.3l0.2,9.2v5.8
		l-0.2,15.3c0,0.8,0.4,1.3,1.1,1.3h7.2c0.6,0,1-0.1,1.1-0.2c0.1-0.1,0.2-0.5,0.2-1.1v-5.1h10.5v1.7
		C491.1,230.5,491.1,230.8,491.2,231z M480.6,219.9v-9.5h10.5v9.5H480.6z"/>
	<path id="XMLID_575_" class="st0" d="M469.5,163.9l13.9-0.2h2.1c-3.2,5.8-9.9,10.1-20.1,12.8c1.7,1.1,3.2,3,4.5,5.7
		c0.9,1.9,1.8,2.8,2.5,2.8c0.6,0,1.4-0.3,2.6-0.8c9.1-3.8,15.4-9,19.1-15.7c4.7,7.7,11.8,13,21.3,16c1.2,0.4,2.1,0.7,2.6,0.7
		c0.6,0,1.3-1,2.1-3c1-2.8,2.3-5,4-6.7c-10.7-2-18.2-6-22.5-11.9h5.5l14,0.2c0.6,0,0.9-0.1,1.1-0.2c0.2-0.1,0.3-0.5,0.3-1.1v-6.9
		c0-0.5-0.1-0.8-0.2-0.9c-0.1-0.1-0.5-0.2-1.2-0.2l-14,0.2h-8.6l0.2-1.7c0.4-3.1,0.9-5.1,1.7-6.1c0.3-0.6,0.5-1.1,0.5-1.6
		c0-0.6-0.7-1-2-1.3c-2.8-0.4-6.2-0.7-10.3-0.9c0.1,1.6,0.2,3.1,0.2,4.5c0,2.2-0.2,4.6-0.5,7.1h-4.8l-13.9-0.2
		c-0.6,0-0.9,0.1-1.1,0.2c-0.1,0.1-0.2,0.5-0.2,1.1v6.7c0,0.5,0.1,0.9,0.2,1C468.4,163.9,468.8,163.9,469.5,163.9z"/>
	<path id="XMLID_561_" class="st0" d="M400.3,210.4c0-0.6-0.1-0.9-0.2-1.1c-0.1-0.2-0.4-0.3-0.9-0.3l-15.6,0.2h-22.4
		c0.8-1.6,2.1-4.7,3.9-9.2h9l14.8,0.2c0.5,0,0.9-0.1,1-0.2c0.1-0.1,0.2-0.5,0.2-1l-0.2-8.4v-9.7l0.2-8.3c0-0.5-0.1-0.9-0.2-1
		c-0.1-0.1-0.5-0.2-1.1-0.2l-14.8,0.2H347l-14.7-0.2c-0.5,0-0.9,0.1-1,0.2c-0.1,0.1-0.2,0.5-0.2,1.1l0.2,8.3v9.7l-0.2,8.4
		c0,0.5,0.1,0.8,0.2,1c0.1,0.1,0.5,0.2,1.1,0.2l14.7-0.2h6.2c-1.3,3.5-2.6,6.5-3.9,9.2h-11.3l-15.5-0.2c-0.5,0-0.8,0.1-0.9,0.2
		c-0.1,0.1-0.2,0.5-0.2,1.2l0.2,10.4v6.9l-0.2,16.8c0,0.8,0.4,1.2,1.1,1.2h9.7c0.7,0,1.1-0.4,1.1-1.2v-3.7h55.3v3.2
		c0,0.5,0,0.8,0.1,0.9c0.1,0.1,0.5,0.2,1.1,0.2h9.5c0.7,0,1.1-0.4,1.1-1.1l-0.2-16.7v-8.1L400.3,210.4z M342.4,191.4v-10.7h36.4
		v10.7H342.4z M388.4,231.1h-55.3V219h55.3V231.1z"/>
	<path id="XMLID_556_" class="st0" d="M313.5,178.8c0,0.5,0.1,0.9,0.2,1c0.1,0.1,0.5,0.2,1.1,0.2h9.3c0.5,0,0.8-0.1,1-0.2
		c0.1-0.1,0.2-0.5,0.2-1.1v-14.7h70.8v14.5c0,0.5,0.1,0.9,0.2,1c0.1,0.1,0.5,0.2,1.1,0.2h9.1c0.6,0,1-0.1,1.1-0.2
		c0.1-0.1,0.2-0.5,0.2-1.1l-0.2-12.4v-5.1l0.2-6c0-0.5-0.1-0.8-0.2-1c-0.1-0.1-0.5-0.2-1.2-0.2l-14.7,0.2h-26.2v-0.9
		c0-3.7,0.2-5.9,0.5-6.6c0-0.1,0.2-0.5,0.4-1.1c0.1-0.4,0.2-0.8,0.2-1.1c0-0.7-0.6-1-1.7-1.1c-4.2-0.4-8.2-0.5-12-0.5
		c0.5,2.2,0.8,5.7,0.8,10.7v0.8h-24.4l-14.8-0.2c-0.5,0-0.9,0.1-1,0.2c-0.1,0.1-0.2,0.5-0.2,1l0.2,6.8v4.3L313.5,178.8z"/>
	<path id="XMLID_555_" class="st0" d="M634.1,175.9c-0.2,3.8-0.9,6.1-2.1,6.9c-0.9,0.6-2.3,0.9-4,0.9c-1.9,0-3.2-0.2-3.7-0.7
		c-0.4-0.4-0.7-1.1-0.7-2.4v-2.9c0-1.9,0.2-3.2,0.5-3.9c0.3-0.6,0.4-1.1,0.4-1.4c0-0.5-0.6-0.9-1.7-1c-3.3-0.3-6.5-0.6-9.5-0.8
		c0.4,2,0.5,4.4,0.5,7.2v6.5c0,3,0.9,5.1,2.6,6.3c1.6,1.1,5.1,1.7,10.4,1.7c5.3,0,8.9-0.7,11-2.2c2.2-1.6,3.6-4.3,4.2-8.1
		c0.1-0.9,0.2-1.5,0.2-1.7c0-0.7-0.8-1.3-2.5-1.9C637.1,177.6,635.3,176.7,634.1,175.9z"/>
	<path id="XMLID_550_" class="st0" d="M586.4,170.6c0.3,1.1,0.8,1.7,1.7,1.7c0.6,0,1.2-0.2,1.8-0.5c0.7-0.5,2.1-0.8,4-0.9
		c12.1-0.7,23.8-1.8,35.2-3.2c0.5,0.7,1.6,2.3,3.2,5c0.4,0.6,0.6,0.9,0.8,0.9l1.4-0.7l6.1-3.5c0.7-0.4,1-0.7,1-1.1
		c0-0.2-0.1-0.5-0.3-0.9c-4.6-7-9.4-12.8-14.5-17.5c-0.4-0.4-0.7-0.6-1-0.6c-0.3,0-0.7,0.1-1.2,0.4l-5.4,2.7c-0.7,0.4-1.1,0.7-1.1,1
		c0,0.3,0.2,0.6,0.5,1c1.5,1.5,3.1,3.3,4.8,5.4c-4,0.4-9.7,0.8-17.1,1.3c1.3-2.3,2.7-5.1,4.2-8.3c0.8-1.7,1.6-3,2.6-3.8
		c0.6-0.5,0.9-1,0.9-1.6c0-0.8-0.6-1.4-1.7-1.8c-2.7-0.8-6-1.5-10.1-2.2c-0.5,2.7-1.2,5.2-2.1,7.4c-1.5,3.8-3.2,7.4-5.1,10.9
		c-1.5,0-2.8,0.1-4.1,0.1c-2,0-4-0.1-5.9-0.2C585.3,164,585.8,167.1,586.4,170.6z"/>
	<path id="XMLID_549_" class="st0" d="M597,171.3c-0.1,1.6-0.4,3.4-0.9,5.2c-2,6.6-7,11-14.8,13.3c1.6,1.3,3.2,3.1,4.6,5.6
		c0.9,1.6,1.6,2.5,2.2,2.5c0.5,0,1.3-0.3,2.6-1c7.4-3.9,12.2-9.5,14.4-16.6c0.5-1.8,1.2-3.1,2-3.9c0.4-0.4,0.7-0.9,0.7-1.3
		c0-0.6-0.6-1.1-1.7-1.5C603.2,172.7,600.1,171.9,597,171.3z"/>
	<path id="XMLID_548_" class="st0" d="M562.2,229.8c0.2,0,0.6-0.1,1.1-0.3l2.2-1c0.9-0.4,1.4-0.8,1.4-1.4c0-0.1,0-0.2-0.1-0.4
		c-0.6-5.9-1.5-11.4-2.9-16.6c0-0.7-0.2-1-0.6-1c-0.2,0-0.5,0.1-0.9,0.2l-2.4,0.8c-0.8,0.3-1.2,0.6-1.2,0.9c0,0.1,0,0.3,0.1,0.6
		c1.3,5.7,2.2,11.5,2.7,17.3C561.7,229.4,561.9,229.8,562.2,229.8z"/>
	<path id="XMLID_537_" class="st0" d="M544.2,203.1c0,0.6,0.1,0.9,0.2,1.1c0.1,0.2,0.5,0.3,1.1,0.3l11.7-0.2h18
		c-0.2,14.9-1,23.9-2.5,26.9c-0.9,1.9-2.5,2.8-4.6,2.8c-1.6,0-4.2-0.2-7.7-0.7c0.9,2,1.7,4.5,2.4,7.6c0.3,1.7,0.6,2.7,0.7,3
		c0.2,0.4,0.8,0.6,1.6,0.7c0.9,0.1,2.4,0.1,4.3,0.1c5.6,0,9.4-2.4,11.5-7.3c1.1,1.3,2.2,3.1,3.4,5.6c0.9,1.7,1.5,2.6,2,2.6
		c0.4,0,1.2-0.2,2.4-0.7c9.4-3.4,17.2-7.4,23.4-12.2c6.7,5.2,14.8,9.1,24.2,11.7c1.2,0.3,2,0.5,2.3,0.5c0.7,0,1.3-0.9,1.9-2.8
		c1-3.1,2.3-5.6,3.8-7.7c-10-2.3-18-5.4-24.1-9.2c3.8-4.3,7.2-8.8,10-13.6c0.8-1.4,1.9-2.7,3.3-3.7c0.7-0.5,1-1.1,1-1.8
		c0-1.1-1.1-2.6-3.2-4.7c-2.2-2-3.6-3-4.2-3c-0.5,0-1,0.1-1.4,0.3c-0.6,0.3-1.4,0.4-2.5,0.4h-12.7l0.5-1.1c0.9-1.8,1.6-3,2.2-3.7
		c0.9-0.9,1.4-1.6,1.4-2.1c0-0.7-0.6-1.2-1.9-1.6c-4.3-1.2-7.2-1.9-8.7-2.1c-0.7,2.5-1.5,4.7-2.6,6.6c-4.3,8-10,14.5-17.1,19.5
		c0.1-2.2,0.3-5.6,0.4-10.3l0.3-7.4c0-0.2,0.1-0.3,0.1-0.4c0-0.7-0.5-1-1.4-1l-9.7,0.2h-2.1v-7.9c2.1,0,4,0.1,5.8,0.2
		c1.7,0,2.5,0.1,2.6,0.1c0.5,0,0.9-0.1,1-0.2c0.1-0.1,0.2-0.5,0.2-1.1v-6.2c0-0.5-0.1-0.9-0.2-1c-0.1-0.1-0.5-0.2-1.1-0.2l-8.4,0.2
		v-7.6c2.1,0,4,0.1,5.7,0.2c1.6,0,2.5,0.1,2.5,0.1c0.5,0,0.9-0.1,1-0.2c0.1-0.1,0.2-0.5,0.2-1v-6.2c0-0.5-0.1-0.9-0.2-1
		c-0.1-0.1-0.5-0.2-1.1-0.2l-8.3,0.2v-7.8h1.1l10.8,0.2c0.8,0,1.2-0.4,1.2-1.1v-7.2c0-0.5-0.1-0.8-0.2-1c-0.1-0.1-0.5-0.2-1-0.2
		l-10.8,0.2h-15.8l-11.7-0.2c-0.5,0-0.9,0.1-1,0.2c-0.1,0.1-0.2,0.5-0.2,1.1l0.2,13.7v27.9L544.2,203.1z M604.9,207.8h15.9
		c-2.6,4.4-5.4,8.2-8.5,11.3c-3.3-3.3-6-6.7-8.1-10.1L604.9,207.8z M584.1,216.4c1.2,1.1,2.4,2.6,3.6,4.4c0.8,1.4,1.5,2.1,2,2.1
		c0.4,0,1.1-0.4,2.4-1.3c2.4-2,4.2-3.7,5.6-5.1c2.2,3.5,4.5,6.6,6.9,9.2c-6.2,4.2-14,7.7-23.4,10.5
		C582.6,232,583.6,225.4,584.1,216.4z M554.2,155.7h8.1v7.8h-8.1V155.7z M554.2,171.8h8.1v7.6h-8.1V171.8z M554.2,187.7h8.1v7.9
		h-8.1V187.7z"/>
	<path id="XMLID_536_" class="st0" d="M556.3,209.8c-0.1,0-0.4,0-0.9,0.1l-2.7,0.6c-1,0.2-1.5,0.5-1.5,1c0,0.1,0,0.3,0.1,0.5
		c0.9,6.5,1.5,13.4,1.6,20.9c0,0.7,0.2,1.1,0.6,1.1c0.2,0,0.5-0.1,0.9-0.2l3.5-1c0.9-0.3,1.4-0.8,1.4-1.5c0-0.1,0-0.3,0-0.5
		c-0.3-6.2-1-12.8-2.1-19.9C556.9,210.2,556.7,209.8,556.3,209.8z"/>
	<path id="XMLID_528_" class="st0" d="M540.3,235.3l3.5,2.5c0.5,0.4,0.9,0.5,1.1,0.5c0.4,0,0.7-0.4,0.9-1.1
		c2.4-7.4,3.8-15.8,4.1-25.2c0-0.3,0.1-0.4,0.1-0.5c0-0.5-0.5-0.9-1.6-1.3l-3.4-1.1c-0.7-0.2-1.1-0.3-1.2-0.3
		c-0.3,0-0.5,0.4-0.5,1.1c-0.5,8.8-1.9,16.5-4,23.1c-0.1,0.3-0.2,0.6-0.2,0.8C539.1,234.3,539.5,234.8,540.3,235.3z"/>
	<path id="XMLID_527_" class="st0" d="M569.6,223.5c0.2,0,0.5-0.1,0.9-0.3l2.4-1.1c0.7-0.4,1-0.7,1-1c0-0.1,0-0.3-0.1-0.5
		c-1-4.6-2.1-8.6-3.2-12c-0.2-0.5-0.4-0.8-0.7-0.8c-0.1,0-0.4,0.1-0.7,0.2l-2.2,0.9c-0.7,0.3-1,0.6-1,0.9c0,0.1,0.1,0.3,0.2,0.6
		c1.2,3.8,2.2,7.9,3,12.3C569.2,223.2,569.4,223.5,569.6,223.5z"/>
</g>
</svg>
