<?xml version="1.0" encoding="utf-8"?>
<!-- Generator: Adobe Illustrator 19.0.0, SVG Export Plug-In . SVG Version: 6.00 Build 0)  -->
<svg version="1.1" id="Layer_1" xmlns="http://www.w3.org/2000/svg" xmlns:xlink="http://www.w3.org/1999/xlink" x="0px" y="0px"
	 viewBox="0 0 555 203" style="enable-background:new 0 0 555 203;" xml:space="preserve">
<style type="text/css">
	.st0{fill:#9FA7BE;}
</style>
<g id="XMLID_526_">
	<rect id="XMLID_1748_" x="3.7" y="118.5" class="st0" width="550.5" height="7.2"/>
	<polygon id="XMLID_1745_" class="st0" points="46.8,164.5 28.5,164.5 28.5,140.6 18.7,140.6 18.7,201.3 28.5,201.3 28.5,174.2 
		46.8,174.2 46.8,201.3 56.7,201.3 56.7,140.6 46.8,140.6 	"/>
	<path id="XMLID_1742_" class="st0" d="M79.4,139l-19.7,62.3h10.4l4.2-12.8h17.6l3.9,12.8h10.5L87.1,139H79.4z M77.1,178.8l5.6-22.1
		h0.1l6.3,22.1H77.1z"/>
	<polygon id="XMLID_1741_" class="st0" points="127.9,140.6 118.2,161.7 109.3,140.6 97.9,140.6 113.6,173.4 113.6,201.3 
		123.4,201.3 123.4,173.4 139.4,140.6 	"/>
	<path id="XMLID_723_" class="st0" d="M150.8,139L131,201.3h10.4l4.2-12.8h17.6l3.9,12.8h10.5L158.4,139H150.8z M148.4,178.8
		l5.6-22.1h0.1l6.3,22.1H148.4z"/>
	<path id="XMLID_625_" class="st0" d="M203.2,139c-7.2,0-13.2,3.1-17.9,9.4c-4.7,6.3-7.1,13.8-7.1,22.5c0,8.9,2.4,16.4,7.1,22.7
		c4.7,6.3,10.7,9.4,18,9.4c7.2,0,13.2-3.1,18-9.4c4.7-6.3,7.1-13.8,7.1-22.7c0-8.7-2.4-16.2-7.1-22.5
		C216.4,142.1,210.4,139,203.2,139z M213.6,184.5c-3,4.5-6.4,6.8-10.4,6.8c-4,0-7.4-2.3-10.4-6.8s-4.4-9.2-4.4-14.1
		c0-5.1,1.4-9.7,4.3-13.7c2.8-4,6.4-6,10.6-6c4.2,0,7.7,2,10.6,6c2.8,4,4.3,8.6,4.3,13.7C218.1,175.3,216.6,179.9,213.6,184.5z"/>
	<polygon id="XMLID_623_" class="st0" points="289.5,139 277.6,179 265.1,139 258.1,139 249.6,201.3 259.5,201.3 264,163.6 
		264.2,163.6 275.2,202.1 278.7,202.1 290.1,163.6 290.3,163.6 294.3,201.3 304.2,201.3 296.6,139 	"/>
	<rect id="XMLID_620_" x="308.6" y="140.6" class="st0" width="9.9" height="60.7"/>
	<polygon id="XMLID_618_" class="st0" points="350.9,140.6 341.3,161.7 332.4,140.6 320.9,140.6 336.6,173.4 336.6,201.3 
		346.5,201.3 346.5,173.4 362.5,140.6 	"/>
	<path id="XMLID_600_" class="st0" d="M438.3,140.6h-34.5v10.3h18.9l-22.1,50.1l-19.1-62h-7.7l-19.7,62.3h10.4l4.2-12.8h17.6
		l3.9,12.8h10.3h0.3h36.4V191h-21L438.3,140.6z M371.5,178.8l5.6-22.1h0.1l6.3,22.1H371.5z"/>
	<path id="XMLID_591_" class="st0" d="M457.8,139L438,201.3h10.4l4.2-12.8h17.6l3.9,12.8h10.5L465.4,139H457.8z M455.4,178.8
		l5.6-22.1h0.1l6.3,22.1H455.4z"/>
	<polygon id="XMLID_589_" class="st0" points="525.4,140.6 513.3,140.6 497.6,166.2 497.5,166.2 497.5,140.6 487.6,140.6 
		487.6,201.3 497.5,201.3 497.5,174 497.6,174 513.8,201.3 526.5,201.3 506.2,168.6 	"/>
	<rect id="XMLID_583_" x="529.2" y="140.6" class="st0" width="9.9" height="60.7"/>
	<path id="XMLID_582_" class="st0" d="M227.7,71.6l-0.2,17.8c0,0.5,0.1,0.8,0.2,1c0.1,0.1,0.5,0.2,1.1,0.2h7.1c0.5,0,0.9-0.1,1-0.2
		c0.1-0.1,0.2-0.5,0.2-1v-9.4h18.5v4.7c0,0.5,0.1,0.8,0.2,1c0.1,0.1,0.5,0.2,1,0.2h6.8c0.5,0,0.9-0.1,1-0.2c0.1-0.1,0.2-0.5,0.2-1
		l-0.2-17.1V54.6h43.5V89c0,1.4-0.2,2.3-0.7,2.8c-0.4,0.5-1.3,0.7-2.7,0.7c-3.2,0-6.8-0.3-10.8-0.8c1.5,2.2,2.5,4.9,3.1,8.1
		c0.3,1.5,0.5,2.4,0.8,2.7c0.3,0.5,1,0.7,2.1,0.7c0.2,0,0.6,0,1.4,0c7.1,0,11.8-0.9,14.1-2.6c2.4-1.9,3.6-5.6,3.6-11.2L318.8,76
		V54.7l7.2,0.1c0.7,0,1.1-0.4,1.1-1.2v-8.2c0-0.8-0.4-1.2-1.1-1.2l-15.1,0.2h-46.3v-6.7c0-5.4,0.2-8.8,0.5-10.3
		c0-0.3,0.1-0.7,0.3-1.3c0.2-0.6,0.3-1.1,0.3-1.4c0-0.5-0.5-0.9-1.6-1.1c-3-0.4-6-0.7-9.2-0.7c0.5,3.4,0.8,8.7,0.8,15.9v30.9H251
		V18.7c0-6,0.1-9.8,0.4-11.2c0.1-0.2,0.2-0.7,0.5-1.4c0.2-0.6,0.3-1.1,0.3-1.5c0-0.8-0.6-1.3-1.7-1.4c-2.4-0.3-5.6-0.5-9.7-0.7
		c0.4,4.6,0.7,10,0.7,16.2v50.9h-4.4V37.4c0-5.8,0.2-9.4,0.5-10.8c0-0.1,0.1-0.4,0.2-0.9c0.1-0.4,0.2-0.8,0.2-1
		c0-0.7-0.5-1.1-1.5-1.3c-1.7-0.1-4.8-0.3-9.5-0.5c0.4,4.2,0.5,9.5,0.5,16V71.6z"/>
	<path id="XMLID_578_" class="st0" d="M291.2,89c0.1,0.1,0.5,0.2,1.1,0.2h6.9c0.5,0,0.9-0.1,1-0.2c0.1-0.1,0.2-0.5,0.2-1.1L300.2,75
		v-6.5l0.2-7.5c0-0.5-0.1-0.9-0.2-1c-0.1-0.1-0.5-0.2-1-0.2l-9.1,0.2h-9l-9.2-0.2c-0.7,0-1.1,0.4-1.1,1.3l0.2,9.2v5.8l-0.2,15.3
		c0,0.8,0.4,1.3,1.1,1.3h7.2c0.6,0,1-0.1,1.1-0.2c0.1-0.1,0.2-0.5,0.2-1.1v-5.1h10.5v1.7C291.1,88.5,291.1,88.8,291.2,89z
		 M280.6,77.9v-9.5h10.5v9.5H280.6z"/>
	<path id="XMLID_575_" class="st0" d="M269.5,21.9l13.9-0.2h2.1c-3.2,5.8-9.9,10.1-20.1,12.8c1.7,1.1,3.2,3,4.5,5.7
		c0.9,1.9,1.8,2.8,2.5,2.8c0.6,0,1.4-0.3,2.6-0.8c9.1-3.8,15.4-9,19.1-15.7c4.7,7.7,11.8,13,21.3,16c1.2,0.4,2.1,0.7,2.6,0.7
		c0.6,0,1.3-1,2.1-3c1-2.8,2.3-5,4-6.7c-10.7-2-18.2-6-22.5-11.9h5.5l14,0.2c0.6,0,0.9-0.1,1.1-0.2c0.2-0.1,0.3-0.5,0.3-1.1v-6.9
		c0-0.5-0.1-0.8-0.2-0.9c-0.1-0.1-0.5-0.2-1.2-0.2l-14,0.2h-8.6l0.2-1.7c0.4-3.1,0.9-5.1,1.7-6.1c0.3-0.6,0.5-1.1,0.5-1.6
		c0-0.6-0.7-1-2-1.3c-2.8-0.4-6.2-0.7-10.3-0.9c0.1,1.6,0.2,3.1,0.2,4.5c0,2.2-0.2,4.6-0.5,7.1h-4.8l-13.9-0.2
		c-0.6,0-0.9,0.1-1.1,0.2c-0.1,0.1-0.2,0.5-0.2,1.1v6.7c0,0.5,0.1,0.9,0.2,1C268.4,21.9,268.8,21.9,269.5,21.9z"/>
	<path id="XMLID_561_" class="st0" d="M200.3,68.4c0-0.6-0.1-0.9-0.2-1.1c-0.1-0.2-0.4-0.3-0.9-0.3l-15.6,0.2h-22.4
		c0.8-1.6,2.1-4.7,3.9-9.2h9l14.8,0.2c0.5,0,0.9-0.1,1-0.2c0.1-0.1,0.2-0.5,0.2-1l-0.2-8.4v-9.7l0.2-8.3c0-0.5-0.1-0.9-0.2-1
		c-0.1-0.1-0.5-0.2-1.1-0.2l-14.8,0.2H147l-14.7-0.2c-0.5,0-0.9,0.1-1,0.2c-0.1,0.1-0.2,0.5-0.2,1.1l0.2,8.3v9.7l-0.2,8.4
		c0,0.5,0.1,0.8,0.2,1c0.1,0.1,0.5,0.2,1.1,0.2l14.7-0.2h6.2c-1.3,3.5-2.6,6.5-3.9,9.2h-11.3L122.4,67c-0.5,0-0.8,0.1-0.9,0.2
		c-0.1,0.1-0.2,0.5-0.2,1.2l0.2,10.4v6.9l-0.2,16.8c0,0.8,0.4,1.2,1.1,1.2h9.7c0.7,0,1.1-0.4,1.1-1.2v-3.7h55.3v3.2
		c0,0.5,0,0.8,0.1,0.9c0.1,0.1,0.5,0.2,1.1,0.2h9.5c0.7,0,1.1-0.4,1.1-1.1l-0.2-16.7v-8.1L200.3,68.4z M142.4,49.4V38.7h36.4v10.7
		H142.4z M188.4,89.1h-55.3V77h55.3V89.1z"/>
	<path id="XMLID_556_" class="st0" d="M113.5,36.8c0,0.5,0.1,0.9,0.2,1c0.1,0.1,0.5,0.2,1.1,0.2h9.3c0.5,0,0.8-0.1,1-0.2
		c0.1-0.1,0.2-0.5,0.2-1.1V22.2h70.8v14.5c0,0.5,0.1,0.9,0.2,1c0.1,0.1,0.5,0.2,1.1,0.2h9.1c0.6,0,1-0.1,1.1-0.2
		c0.1-0.1,0.2-0.5,0.2-1.1l-0.2-12.4v-5.1l0.2-6c0-0.5-0.1-0.8-0.2-1c-0.1-0.1-0.5-0.2-1.2-0.2l-14.7,0.2h-26.2v-0.9
		c0-3.7,0.2-5.9,0.5-6.6c0-0.1,0.2-0.5,0.4-1.1c0.1-0.4,0.2-0.8,0.2-1.1c0-0.7-0.6-1-1.7-1.1c-4.2-0.4-8.2-0.5-12-0.5
		c0.5,2.2,0.8,5.7,0.8,10.7v0.8h-24.4L114.8,12c-0.5,0-0.9,0.1-1,0.2c-0.1,0.1-0.2,0.5-0.2,1l0.2,6.8v4.3L113.5,36.8z"/>
	<path id="XMLID_555_" class="st0" d="M434.1,33.9c-0.2,3.8-0.9,6.1-2.1,6.9c-0.9,0.6-2.3,0.9-4,0.9c-1.9,0-3.2-0.2-3.7-0.7
		c-0.4-0.4-0.7-1.1-0.7-2.4v-2.9c0-1.9,0.2-3.2,0.5-3.9c0.3-0.6,0.4-1.1,0.4-1.4c0-0.5-0.6-0.9-1.7-1c-3.3-0.3-6.5-0.6-9.5-0.8
		c0.4,2,0.5,4.4,0.5,7.2v6.5c0,3,0.9,5.1,2.6,6.3c1.6,1.1,5.1,1.7,10.4,1.7c5.3,0,8.9-0.7,11-2.2c2.2-1.6,3.6-4.3,4.2-8.1
		c0.1-0.9,0.2-1.5,0.2-1.7c0-0.7-0.8-1.3-2.5-1.9C437.1,35.6,435.3,34.7,434.1,33.9z"/>
	<path id="XMLID_550_" class="st0" d="M386.4,28.6c0.3,1.1,0.8,1.7,1.7,1.7c0.6,0,1.2-0.2,1.8-0.5c0.7-0.5,2.1-0.8,4-0.9
		c12.1-0.7,23.8-1.8,35.2-3.2c0.5,0.7,1.6,2.3,3.2,5c0.4,0.6,0.6,0.9,0.8,0.9l1.4-0.7l6.1-3.5c0.7-0.4,1-0.7,1-1.1
		c0-0.2-0.1-0.5-0.3-0.9c-4.6-7-9.4-12.8-14.5-17.5c-0.4-0.4-0.7-0.6-1-0.6c-0.3,0-0.7,0.1-1.2,0.4l-5.4,2.7c-0.7,0.4-1.1,0.7-1.1,1
		c0,0.3,0.2,0.6,0.5,1c1.5,1.5,3.1,3.3,4.8,5.4c-4,0.4-9.7,0.8-17.1,1.3c1.3-2.3,2.7-5.1,4.2-8.3c0.8-1.7,1.6-3,2.6-3.8
		c0.6-0.5,0.9-1,0.9-1.6c0-0.8-0.6-1.4-1.7-1.8c-2.7-0.8-6-1.5-10.1-2.2c-0.5,2.7-1.2,5.2-2.1,7.4c-1.5,3.8-3.2,7.4-5.1,10.9
		c-1.5,0-2.8,0.1-4.1,0.1c-2,0-4-0.1-5.9-0.2C385.3,22,385.8,25.1,386.4,28.6z"/>
	<path id="XMLID_549_" class="st0" d="M397,29.3c-0.1,1.6-0.4,3.4-0.9,5.2c-2,6.6-7,11-14.8,13.3c1.6,1.3,3.2,3.1,4.6,5.6
		c0.9,1.6,1.6,2.5,2.2,2.5c0.5,0,1.3-0.3,2.6-1c7.4-3.9,12.2-9.5,14.4-16.6c0.5-1.8,1.2-3.1,2-3.9c0.4-0.4,0.7-0.9,0.7-1.3
		c0-0.6-0.6-1.1-1.7-1.5C403.2,30.7,400.1,29.9,397,29.3z"/>
	<path id="XMLID_548_" class="st0" d="M362.2,87.8c0.2,0,0.6-0.1,1.1-0.3l2.2-1c0.9-0.4,1.4-0.8,1.4-1.4c0-0.1,0-0.2-0.1-0.4
		c-0.6-5.9-1.5-11.4-2.9-16.6c0-0.7-0.2-1-0.6-1c-0.2,0-0.5,0.1-0.9,0.2l-2.4,0.8c-0.8,0.3-1.2,0.6-1.2,0.9c0,0.1,0,0.3,0.1,0.6
		c1.3,5.7,2.2,11.5,2.7,17.3C361.7,87.4,361.9,87.8,362.2,87.8z"/>
	<path id="XMLID_537_" class="st0" d="M344.2,61.1c0,0.6,0.1,0.9,0.2,1.1c0.1,0.2,0.5,0.3,1.1,0.3l11.7-0.2h18
		c-0.2,14.9-1,23.9-2.5,26.9c-0.9,1.9-2.5,2.8-4.6,2.8c-1.6,0-4.2-0.2-7.7-0.7c0.9,2,1.7,4.5,2.4,7.6c0.3,1.7,0.6,2.7,0.7,3
		c0.2,0.4,0.8,0.6,1.6,0.7c0.9,0.1,2.4,0.1,4.3,0.1c5.6,0,9.4-2.4,11.5-7.3c1.1,1.3,2.2,3.1,3.4,5.6c0.9,1.7,1.5,2.6,2,2.6
		c0.4,0,1.2-0.2,2.4-0.7c9.4-3.4,17.2-7.4,23.4-12.2c6.7,5.2,14.8,9.1,24.2,11.7c1.2,0.3,2,0.5,2.3,0.5c0.7,0,1.3-0.9,1.9-2.8
		c1-3.1,2.3-5.6,3.8-7.7c-10-2.3-18-5.4-24.1-9.2c3.8-4.3,7.2-8.8,10-13.6c0.8-1.4,1.9-2.7,3.3-3.7c0.7-0.5,1-1.1,1-1.8
		c0-1.1-1.1-2.6-3.2-4.7c-2.2-2-3.6-3-4.2-3c-0.5,0-1,0.1-1.4,0.3c-0.6,0.3-1.4,0.4-2.5,0.4h-12.7L411,56c0.9-1.8,1.6-3,2.2-3.7
		c0.9-0.9,1.4-1.6,1.4-2.1c0-0.7-0.6-1.2-1.9-1.6c-4.3-1.2-7.2-1.9-8.7-2.1c-0.7,2.5-1.5,4.7-2.6,6.6c-4.3,8-10,14.5-17.1,19.5
		c0.1-2.2,0.3-5.6,0.4-10.3l0.3-7.4c0-0.2,0.1-0.3,0.1-0.4c0-0.7-0.5-1-1.4-1l-9.7,0.2h-2.1v-7.9c2.1,0,4,0.1,5.8,0.2
		c1.7,0,2.5,0.1,2.6,0.1c0.5,0,0.9-0.1,1-0.2c0.1-0.1,0.2-0.5,0.2-1.1v-6.2c0-0.5-0.1-0.9-0.2-1c-0.1-0.1-0.5-0.2-1.1-0.2l-8.4,0.2
		v-7.6c2.1,0,4,0.1,5.7,0.2c1.6,0,2.5,0.1,2.5,0.1c0.5,0,0.9-0.1,1-0.2c0.1-0.1,0.2-0.5,0.2-1v-6.2c0-0.5-0.1-0.9-0.2-1
		c-0.1-0.1-0.5-0.2-1.1-0.2l-8.3,0.2v-7.8h1.1l10.8,0.2c0.8,0,1.2-0.4,1.2-1.1V5.7c0-0.5-0.1-0.8-0.2-1c-0.1-0.1-0.5-0.2-1-0.2
		l-10.8,0.2h-15.8l-11.7-0.2c-0.5,0-0.9,0.1-1,0.2c-0.1,0.1-0.2,0.5-0.2,1.1l0.2,13.7v27.9L344.2,61.1z M404.9,65.8h15.9
		c-2.6,4.4-5.4,8.2-8.5,11.3c-3.3-3.3-6-6.7-8.1-10.1L404.9,65.8z M384.1,74.4c1.2,1.1,2.4,2.6,3.6,4.4c0.8,1.4,1.5,2.1,2,2.1
		c0.4,0,1.1-0.4,2.4-1.3c2.4-2,4.2-3.7,5.6-5.1c2.2,3.5,4.5,6.6,6.9,9.2c-6.2,4.2-14,7.7-23.4,10.5C382.6,90,383.6,83.4,384.1,74.4z
		 M354.2,13.7h8.1v7.8h-8.1V13.7z M354.2,29.8h8.1v7.6h-8.1V29.8z M354.2,45.7h8.1v7.9h-8.1V45.7z"/>
	<path id="XMLID_536_" class="st0" d="M356.3,67.8c-0.1,0-0.4,0-0.9,0.1l-2.7,0.6c-1,0.2-1.5,0.5-1.5,1c0,0.1,0,0.3,0.1,0.5
		c0.9,6.5,1.5,13.4,1.6,20.9c0,0.7,0.2,1.1,0.6,1.1c0.2,0,0.5-0.1,0.9-0.2l3.5-1c0.9-0.3,1.4-0.8,1.4-1.5c0-0.1,0-0.3,0-0.5
		c-0.3-6.2-1-12.8-2.1-19.9C356.9,68.2,356.7,67.8,356.3,67.8z"/>
	<path id="XMLID_528_" class="st0" d="M340.3,93.3l3.5,2.5c0.5,0.4,0.9,0.5,1.1,0.5c0.4,0,0.7-0.4,0.9-1.1
		c2.4-7.4,3.8-15.8,4.1-25.2c0-0.3,0.1-0.4,0.1-0.5c0-0.5-0.5-0.9-1.6-1.3l-3.4-1.1c-0.7-0.2-1.1-0.3-1.2-0.3
		c-0.3,0-0.5,0.4-0.5,1.1c-0.5,8.8-1.9,16.5-4,23.1c-0.1,0.3-0.2,0.6-0.2,0.8C339.1,92.3,339.5,92.8,340.3,93.3z"/>
	<path id="XMLID_527_" class="st0" d="M369.6,81.5c0.2,0,0.5-0.1,0.9-0.3l2.4-1.1c0.7-0.4,1-0.7,1-1c0-0.1,0-0.3-0.1-0.5
		c-1-4.6-2.1-8.6-3.2-12c-0.2-0.5-0.4-0.8-0.7-0.8c-0.1,0-0.4,0.1-0.7,0.2l-2.2,0.9c-0.7,0.3-1,0.6-1,0.9c0,0.1,0.1,0.3,0.2,0.6
		c1.2,3.8,2.2,7.9,3,12.3C369.2,81.2,369.4,81.5,369.6,81.5z"/>
</g>
</svg>
